<?xml version="1.0" standalone="no"?>
<!DOCTYPE svg PUBLIC "-//W3C//DTD SVG 20010904//EN"
 "http://www.w3.org/TR/2001/REC-SVG-20010904/DTD/svg10.dtd">
<svg version="1.0" xmlns="http://www.w3.org/2000/svg"
 width="833.838179pt" height="210.000000pt" viewBox="0 0 833.838179 210.000000"
 preserveAspectRatio="xMidYMid meet">
<g transform="translate(-0.995181,211.000000) rotate(-360.00) scale(0.095238,-0.095238)"
fill="#000000" stroke="none">
<path d="M152 2196 c-155 -72 -189 -271 -67 -387 70 -66 70 -66 542 -66 481 0
482 1 546 78 99 121 61 313 -75 375 -39 17 -78 19 -473 19 -398 0 -434 -1
-473 -19z"/>
<path d="M1220 2187 c43 -46 72 -114 78 -185 8 -81 -18 -153 -84 -241 -25 -34
-296 -355 -601 -714 -305 -359 -566 -674 -579 -699 -58 -116 -4 -262 118 -318
38 -17 73 -19 323 -19 l281 0 -36 53 c-91 132 -78 263 40 418 26 33 296 353
600 711 304 357 559 663 568 679 41 78 26 193 -34 259 -73 81 -89 85 -414 85
l-287 0 27 -29z"/>
<path d="M2336 2196 c-23 -11 -57 -36 -75 -55 -69 -72 -66 -48 -66 -759 l0
-645 29 -56 c81 -155 305 -166 406 -21 27 39 32 56 35 128 l4 84 491 0 c533 0
553 1 627 58 45 34 87 120 87 177 1 93 -48 176 -129 219 -43 23 -50 23 -562
26 l-517 3 3 354 c4 390 4 391 71 468 l34 39 -198 -1 c-170 0 -204 -3 -240
-19z"/>
<path d="M2872 2196 c-84 -39 -133 -120 -133 -219 0 -101 69 -198 159 -224 24
-7 223 -10 558 -8 l522 3 45 32 c127 89 150 246 53 354 -75 83 -56 81 -642 81
-484 0 -523 -1 -562 -19z"/>
<path d="M4888 2199 c-117 -29 -212 -85 -310 -183 -138 -137 -199 -281 -199
-468 -1 -209 99 -410 265 -536 117 -88 225 -126 400 -137 l103 -7 -37 49 c-95
125 -92 285 9 405 l28 33 -76 0 c-62 0 -85 4 -121 26 -137 80 -125 276 21 342
40 18 82 20 593 20 402 0 561 3 593 13 26 8 62 32 91 60 92 93 97 217 12 317
-73 85 -46 82 -716 81 -480 0 -605 -3 -656 -15z"/>
<path d="M6687 2186 c-71 -37 -116 -104 -122 -185 -6 -72 11 -124 59 -177 72
-79 78 -81 461 -81 l338 0 3 -780 c3 -775 3 -779 25 -821 29 -54 61 -83 120
-110 115 -52 246 -6 307 108 l23 44 0 929 0 929 -22 42 c-13 23 -37 55 -53 71
-64 61 -64 61 -595 61 l-488 0 -56 -30z"/>
<path d="M7893 2181 c64 -67 71 -92 75 -273 l3 -165 307 0 c273 0 310 2 348
20 97 44 148 135 139 244 -8 84 -45 139 -122 179 l-56 30 -364 0 -363 0 33
-35z"/>
<path d="M5286 1343 c-55 -13 -128 -75 -153 -130 -11 -25 -19 -66 -19 -100 0
-221 277 -322 417 -152 75 91 70 231 -11 318 -52 56 -152 83 -234 64z"/>
<path d="M5578 1315 c75 -78 97 -219 51 -324 -13 -30 -35 -65 -49 -78 -14 -13
-25 -28 -25 -33 0 -5 34 -8 77 -8 65 0 83 -5 117 -27 55 -38 75 -66 89 -122
22 -90 -23 -181 -110 -220 -39 -18 -82 -20 -604 -20 -522 0 -565 -2 -604 -20
-119 -54 -174 -196 -122 -311 24 -52 97 -117 148 -131 22 -6 264 -10 610 -10
537 0 579 1 655 20 124 32 219 87 311 178 331 334 233 880 -195 1078 -94 43
-161 57 -280 57 l-96 0 27 -29z"/>
<path d="M2196 382 l4 -210 31 -52 c23 -37 47 -59 88 -80 l56 -29 789 0 c892
0 837 -5 913 84 80 93 80 217 0 305 -75 83 -7 77 -916 83 l-814 5 -47 25 c-26
14 -61 37 -77 52 l-30 28 3 -211z"/>
<path d="M866 463 c-83 -39 -142 -126 -141 -213 0 -54 38 -139 80 -179 64 -60
69 -61 536 -60 486 0 480 -1 552 84 104 122 66 295 -80 366 -43 21 -62 22
-475 22 -396 0 -433 -2 -472 -20z"/>
</g>
</svg>
