<?xml version="1.0" encoding="utf-8"?>
<svg xmlns="http://www.w3.org/2000/svg" viewBox="0 0 50 50" fill="#000000"><path d="M 23.039062 3 A 1.0001 1.0001 0 0 0 22 4 L 22 12 L 4 12 A 1.0001 1.0001 0 0 0 3 13 L 3 37 A 1.0001 1.0001 0 0 0 4 38 L 22 38 L 22 46 A 1.0001 1.0001 0 0 0 23.673828 46.738281 L 46.673828 25.738281 A 1.0001 1.0001 0 0 0 46.673828 24.261719 L 23.673828 3.2617188 A 1.0001 1.0001 0 0 0 23.039062 3 z M 24 6.265625 L 44.517578 25 L 24 43.734375 L 24 37 A 1.0001 1.0001 0 0 0 23 36 L 5 36 L 5 14 L 23 14 A 1.0001 1.0001 0 0 0 24 13 L 24 6.265625 z M 29.005859 17.988281 A 1.0001 1.0001 0 0 0 28.244141 18.345703 L 19.414062 28.570312 L 14.671875 24.259766 A 1.0001 1.0001 0 1 0 13.328125 25.740234 L 18.828125 30.740234 A 1.0001 1.0001 0 0 0 20.255859 30.654297 L 29.755859 19.654297 A 1.0001 1.0001 0 0 0 29.005859 17.988281 z" fill="#000000"/></svg>
